<svg xmlns="http://www.w3.org/2000/svg" fill="none" viewBox="0 0 1240 1240" id="Rubocop--Streamline-Svg-Logos" height="1240" width="1240">
  <desc>
    Rubocop Streamline Icon: https://streamlinehq.com
  </desc>
  <path fill="#0a0b09" d="M1105.9960416666665 531.929v-39.05741666666667c0 -42.73866666666667 -34.964125 -77.71312499999999 -77.71312499999999 -77.71312499999999H211.71191666666664c-42.737375 0 -77.71312499999999 34.97445833333333 -77.71312499999999 77.71312499999999v39.05741666666667c-18.090308333333333 11.101875 -30.268141666666665 31.00258333333333 -30.268141666666665 53.66875v104.48291666666667c0 22.666166666666665 12.177833333333332 42.57720833333333 30.268141666666665 53.67908333333333v40.536375c0 42.737375 34.97575 77.71312499999999 77.71312499999999 77.71312499999999H1028.2829166666666c42.749 0 77.71312499999999 -34.97575 77.71312499999999 -77.71312499999999v-40.536375c18.101416666666665 -11.101875 30.268916666666666 -31.012916666666662 30.268916666666666 -53.67908333333333v-104.48291666666667c0 -22.666166666666665 -12.167499999999999 -42.57720833333333 -30.268916666666666 -53.66875ZM623.0547916666667 12.916666666666666C402.9780416666666 12.916666666666666 221.42654166666668 177.35358333333335 194.23566666666665 390.038125h857.6395416666667C1024.6830416666664 177.35358333333335 843.1315416666665 12.916666666666666 623.0547916666667 12.916666666666666ZM490.80749999999995 969.769125h255.29275l26.06583333333333 30.178499999999996 39.20854166666666 -33.85845833333333 -41.56195833333333 -48.128791666666665H467.0860416666666l-41.56195833333333 48.128791666666665 39.20854166666666 33.85845833333333 26.074875 -30.178499999999996Zm442.05354166666666 -92.03254166666666v165.30104166666666c0 45.43308333333333 -37.17675 82.60983333333333 -82.60983333333333 82.60983333333333h-44.96033333333333v-0.16016666666666665c-9.845083333333333 0 -18.534125 -4.606083333333332 -24.325958333333332 -11.675375h-0.11108333333333333l-53.759166666666665 -68.67275 -0.060708333333333336 0.050374999999999996c-5.741458333333333 -7.4412916666666655 -14.630708333333333 -12.328958333333333 -24.738 -12.398708333333332 -0.06975 0 -0.13045833333333332 -0.020666666666666667 -0.20020833333333332 -0.020666666666666667 -0.060708333333333336 0 -0.12141666666666667 0.020666666666666667 -0.19116666666666668 0.020666666666666667H546.2574583333333c-0.07104166666666666 0 -0.13175 -0.020666666666666667 -0.19116666666666668 -0.020666666666666667 -0.07104166666666666 0 -0.13175 0.020666666666666667 -0.20149999999999998 0.020666666666666667 -9.362 0.059416666666666666 -17.658375 4.274125 -23.410166666666665 10.789291666666667l-0.11108333333333333 -0.050374999999999996 -55.01595833333332 70.28216666666667h-0.081375c-5.791833333333333 7.0692916666666665 -14.480875 11.675375 -24.324666666666666 11.675375v0.16016666666666665h-45.001666666666665c-45.43308333333333 0 -82.60983333333333 -37.17675 -82.60983333333333 -82.60983333333333V877.7365833333333h-100.96312499999999v165.77379166666665C214.34691666666666 1144.4734999999998 296.95804166666665 1227.0833333333333 397.919875 1227.0833333333333h452.36104166666667c100.97345833333334 0 183.57295833333333 -82.60983333333333 183.57295833333333 -183.57295833333333V877.7365833333333h-100.99283333333334Z" stroke-width="12.9167"></path>
  <path fill="#d7252c" d="M953.8945416666667 688.9801666666667h-667.7916666666666c-31.538625 0 -57.34354166666666 -25.803625 -57.34354166666666 -57.34354166666666 0 -31.538625 25.804916666666667 -57.34354166666666 57.34354166666666 -57.34354166666666h667.7916666666666c31.528291666666664 0 57.33320833333333 25.804916666666667 57.33320833333333 57.34354166666666 0 31.539916666666667 -25.804916666666667 57.34354166666666 -57.33320833333333 57.34354166666666Z" stroke-width="12.9167"></path>
</svg>